#N canvas 455 257 608 487 12;
#X obj 164 227 +~;
#X obj 194 191 *~ 140;
#X floatatom 257 161 5 0 0 0 - - -;
#X obj 194 129 osc~ 1;
#X floatatom 194 103 5 0 0 0 - - -;
#X floatatom 106 179 5 0 0 0 - - -;
#X obj 163 257 osc~;
#X obj 165 320 *~ 0.8;
#X obj 160 376 dac~;
#X text 76 116 Carrier;
#X text 268 32 Modulator;
#X text 59 17 3.6.1.2. Frequency modulation;
#X text 305 419 www.pd-tutorial.com;
#X text 303 388 Johannes Kreidler;
#X obj 73 140 receive carr;
#X obj 338 258 bng 15 250 50 0 empty empty empty 17 7 0 10 -262144
-1 -1;
#X obj 321 225 bng 15 250 50 0 empty empty empty 17 7 0 10 -262144
-1 -1;
#X obj 191 64 receive mod;
#X msg 266 297 1;
#X msg 257 259 0;
#X obj 369 189 receive off;
#X obj 401 248 receive on;
#X connect 0 0 6 0;
#X connect 1 0 0 1;
#X connect 2 0 1 1;
#X connect 3 0 1 0;
#X connect 4 0 3 0;
#X connect 5 0 0 0;
#X connect 6 0 7 0;
#X connect 7 0 8 0;
#X connect 7 0 8 1;
#X connect 14 0 5 0;
#X connect 15 0 18 0;
#X connect 16 0 19 0;
#X connect 17 0 4 0;
#X connect 18 0 7 1;
#X connect 19 0 7 1;
#X connect 20 0 16 0;
#X connect 21 0 15 0;
